#!OML:ASF E:\Mandelcareful walks\Project 1\Capture day 1\Session 1\Subject1.ASF
:FULLY-SPECIFIED
:DEGREES
554
root 6.53727 15.8069 -1.76448 -99.9455 -83.9851 106.108
lowerback 30.5989 1.92403 -1.67921
upperback 7.31409 0.993822 -2.00258
thorax -8.52979 0.189736 -1.60633
lowerneck -24.012 12.0744 6.22666
upperneck 29.5584 18.8336 -11.3974
head 16.4955 6.82566 -1.78144
rclavicle -2.82274e-014 -7.95139e-015
rhumerus -21.0523 -2.13626 -88.2908
rradius 76.8233
rwrist -14.0363
rhand -13.6604 -27.0693
rfingers 7.12502
rthumb 12.4566 -56.6781
lclavicle -2.82274e-014 -7.95139e-015
lhumerus -13.8144 -16.4106 88.055
lradius 73.0202
lwrist 11.1921
lhand -21.4831 -13.1496
lfingers 7.12502
lthumb 4.90789 16.7736
rfemur -27.5107 -13.1442 3.87952
rtibia 49.604
rfoot -20.9611 -6.37775
rtoes -6.68071
lfemur -34.3929 12.2857 -16.2925
ltibia 50.5087
lfoot -16.1185 2.43752
ltoes -5.26768
555
root 6.55044 15.8057 -1.73274 -97.5073 -84.1287 103.907
lowerback 30.5185 1.7973 -1.79411
upperback 7.1865 0.823824 -1.92573
thorax -8.64286 0.119027 -1.39186
lowerneck -24.0051 11.9888 6.16445
upperneck 29.5476 18.7236 -11.3934
head 16.4674 6.77398 -1.79861
rclavicle -3.49861e-014 3.24019e-014
rhumerus -21.2181 -2.01846 -88.3637
rradius 76.8676
rwrist -14.0698
rhand -13.557 -27.5012
rfingers 7.12502
rthumb 12.5562 -57.1039
lclavicle -3.49861e-014 3.24019e-014
lhumerus -13.6779 -16.5759 87.8387
lradius 72.9087
lwrist 11.1286
lhand -21.3161 -13.0576
lfingers 7.12502
lthumb 5.06911 16.8618
rfemur -27.6102 -13.3393 3.92823
rtibia 49.3753
rfoot -20.7943 -6.51135
rtoes -6.38998
lfemur -34.8173 12.2019 -16.3706
ltibia 50.6109
lfoot -16.084 2.30414
ltoes -5.16459
556
root 6.52413 15.8125 -1.68037 -100.535 -84.0805 106.724
lowerback 30.5415 1.86101 -1.82407
upperback 7.27464 0.879971 -1.96032
thorax -8.55258 0.140328 -1.43261
lowerneck -24.1515 11.8278 5.88576
upperneck 29.5658 18.5235 -11.2049
head 16.4212 6.67969 -1.72076
rclavicle -9.54166e-015 1.25234e-014
rhumerus -21.2425 -2.04311 -88.3737
rradius 76.8114
rwrist -14.1332
rhand -13.5377 -27.6063
rfingers 7.12502
rthumb 12.5748 -57.2079
lclavicle -9.54166e-015 1.25234e-014
lhumerus -13.5248 -16.7505 87.6752
lradius 72.7671
lwrist 10.5854
lhand -23.0054 -15.0426
lfingers 7.12502
lthumb 3.43784 14.9094
rfemur -27.1997 -13.2033 3.65756
rtibia 49.0593
rfoot -20.6215 -6.33517
rtoes -6.2644
lfemur -34.3807 12.2669 -16.4903
ltibia 50.7206
lfoot -16.4434 2.43102
ltoes -4.70455
557
root 6.50495 15.8159 -1.63007 -104.021 -84.0066 110.091
lowerback 30.5065 1.93303 -1.87781
upperback 7.35148 0.937989 -2.0357
thorax -8.44711 0.163279 -1.50525
lowerneck -24.6133 11.6898 5.51066
upperneck 29.8482 18.3326 -10.7414
head 16.5226 6.58592 -1.49916
rclavicle 7.7526e-015 -3.53837e-014
rhumerus -21.2524 -2.02538 -88.4625
rradius 76.7753
rwrist -14.243
rhand -13.5817 -26.49
rfingers 7.12502
rthumb 12.5325 -56.0941
lclavicle 7.7526e-015 -3.53837e-014
lhumerus -13.397 -17.0114 87.434
lradius 72.6415
lwrist 10.4801
lhand -22.6254 -14.3513
lfingers 7.12502
lthumb 3.80489 15.5944
rfemur -26.9986 -12.976 3.45085
rtibia 48.8093
rfoot -20.4669 -6.22029
rtoes -6.65603
lfemur -34.1349 12.3768 -16.6025
ltibia 50.839
lfoot -16.682 2.60112
ltoes -4.17099
558
root 6.51057 15.8134 -1.59116 -108.483 -84.1295 114.632
lowerback 30.6311 2.03643 -1.91427
upperback 7.24209 1.05885 -2.00027
thorax -8.6312 0.222026 -1.49353
lowerneck -24.7187 11.5436 5.42256
upperneck 29.9376 18.1442 -10.7037
head 16.554 6.49144 -1.51374
rclavicle -3.75703e-014 2.50469e-014
rhumerus -21.4791 -1.97993 -88.5816
rradius 76.8717
rwrist -14.2364
rhand -13.4208 -26.9692
rfingers 7.12502
rthumb 12.6875 -56.5638
lclavicle -3.75703e-014 2.50469e-014
lhumerus -13.4475 -17.3641 87.2303
lradius 72.6459
lwrist 11.0307
lhand -21.9931 -13.0909
lfingers 7.12502
lthumb 4.41541 16.8431
rfemur -27.1295 -12.4999 3.67423
rtibia 48.4659
rfoot -20.2027 -6.38338
rtoes -7.10714
lfemur -34.3135 12.6561 -16.4398
ltibia 50.9715
lfoot -16.645 2.81915
ltoes -4.30671
559
root 6.51928 15.8199 -1.55937 -106.187 -84.2194 112.346
lowerback 30.803 1.94967 -2.08905
upperback 7.15887 0.899663 -1.94241
thorax -8.81448 0.153183 -1.27374
lowerneck -24.6721 11.3609 5.34319
upperneck 29.827 17.9382 -10.8473
head 16.4806 6.38452 -1.61451
rclavicle -4.03533e-014 -2.96189e-014
rhumerus -21.6619 -1.85538 -88.6374
rradius 76.8666
rwrist -14.1975
rhand -13.2555 -27.5933
rfingers 7.12502
rthumb 12.8469 -57.1779
lclavicle -4.03533e-014 -2.96189e-014
lhumerus -13.4639 -17.6206 87.1266
lradius 72.5265
lwrist 11.2967
lhand -21.9825 -12.5696
lfingers 7.12502
lthumb 4.42565 17.3642
rfemur -26.9077 -12.6967 3.55167
rtibia 48.1908
rfoot -20.0713 -6.42335
rtoes -7.07835
lfemur -34.4935 12.5035 -16.5851
ltibia 51.104
lfoot -16.6139 2.82833
ltoes -4.71452
560
root 6.4824 15.8348 -1.50239 -111.592 -84.2198 117.434
lowerback 30.7641 2.05137 -1.97829
upperback 7.30386 1.04685 -1.95979
thorax -8.62644 0.212214 -1.40767
lowerneck -24.7457 11.1438 5.07254
upperneck 29.7091 17.6684 -10.7443
head 16.3627 6.26288 -1.5911
rclavicle -1.22253e-014 4.6118e-014
rhumerus -21.7409 -1.71723 -88.6634
rradius 76.754
rwrist -14.2525
rhand -13.3899 -28.0756
rfingers 7.12502
rthumb 12.7173 -57.6683
lclavicle -1.22253e-014 4.6118e-014
lhumerus -13.2906 -17.8146 87.0005
lradius 72.2443
lwrist 11.2447
lhand -22.4517 -12.8483
lfingers 7.12502
lthumb 3.97257 17.0944
rfemur -26.3844 -12.3348 3.44279
rtibia 47.8836
rfoot -19.9526 -6.21192
rtoes -7.26639
lfemur -33.9257 12.7348 -16.5047
ltibia 51.2714
lfoot -17.0403 2.96205
ltoes -4.53329
561
root 6.48815 15.8273 -1.46328 -109.964 -84.3847 116.044
lowerback 30.4853 1.9338 -1.97234
upperback 7.26807 0.922881 -1.94719
thorax -8.53566 0.159249 -1.34621
lowerneck -24.9644 10.9521 4.78571
upperneck 29.7432 17.4163 -10.507
head 16.333 6.14975 -1.49985
rclavicle 1.98785e-016 1.61016e-014
rhumerus -21.8748 -1.64283 -88.7521
rradius 76.7558
rwrist -14.2778
rhand -13.6362 -27.8138
rfingers 7.12502
rthumb 12.4798 -57.4212
lclavicle 1.98785e-016 1.61016e-014
lhumerus -12.9843 -18.0168 86.754
lradius 71.9792
lwrist 11.0387
lhand -22.7953 -12.922
lfingers 7.12502
lthumb 3.64076 17.0267
rfemur -26.5281 -12.5252 3.4314
rtibia 47.7676
rfoot -19.817 -6.23839
rtoes -7.49586
lfemur -34.3594 12.6717 -16.6042
ltibia 51.5113
lfoot -17.1107 2.76026
ltoes -3.70506
562
root 6.49731 15.8174 -1.42615 -109.229 -84.4925 115.492
lowerback 30.3658 1.87303 -2.01702
upperback 7.22675 0.8442 -1.94006
thorax -8.52721 0.126279 -1.28209
lowerneck -25.1564 10.7475 4.59478
upperneck 29.7384 17.1494 -10.3987
head 16.309 6.02578 -1.48158
rclavicle 8.05078e-015 3.1408e-014
rhumerus -21.9645 -1.57046 -88.8217
rradius 76.7198
rwrist -14.239
rhand -13.6911 -27.557
rfingers 7.12502
rthumb 12.4269 -57.1675
lclavicle 8.05078e-015 3.1408e-014
lhumerus -12.6793 -18.3687 86.5462
lradius 71.5907
lwrist 11.5555
lhand -23.0088 -13.3359
lfingers 7.12502
lthumb 3.43456 16.6161
rfemur -26.6528 -12.6039 3.41199
rtibia 47.5617
rfoot -19.6204 -6.25573
rtoes -7.45554
lfemur -34.7239 12.5338 -16.6525
ltibia 51.7323
lfoot -17.2821 2.62935
ltoes -2.83771
563
root 6.51995 15.8102 -1.39551 -110.293 -84.7127 116.916
lowerback 30.2662 1.87319 -2.03891
upperback 7.06986 0.863559 -1.87285
thorax -8.65959 0.143822 -1.20205
lowerneck -25.256 10.5065 4.3671
upperneck 29.636 16.84 -10.3143
head 16.2134 5.8876 -1.48011
rclavicle 1.74931e-014 -1.27222e-014
rhumerus -22.0778 -1.46614 -88.8003
rradius 76.6324
rwrist -14.2191
rhand -13.6563 -27.5783
rfingers 7.12502
rthumb 12.4605 -57.1868
lclavicle 1.74931e-014 -1.27222e-014
lhumerus -12.4179 -18.6747 86.3926
lradius 71.1718
lwrist 11.6795
lhand -23.2582 -13.2876
lfingers 7.12502
lthumb 3.19378 16.6683
rfemur -27.1338 -12.4687 3.71242
rtibia 47.4315
rfoot -19.3861 -6.49208
rtoes -7.54789
lfemur -35.4 12.5674 -16.5475
ltibia 51.9727
lfoot -17.2872 2.5435
ltoes -2.74257
564
root 6.47796 15.8266 -1.33735 -113.196 -84.4588 119.516
lowerback 30.1386 1.95171 -2.15511
upperback 7.24949 0.90406 -1.99237
thorax -8.39341 0.155254 -1.27785
lowerneck -25.4181 10.273 4.17209
upperneck 29.5605 16.5321 -10.2253
head 16.1493 5.74979 -1.47861
rclavicle 2.01766e-014 5.1684e-015
rhumerus -22.2279 -1.30059 -88.808
rradius 76.7265
rwrist -14.2771
rhand -13.7416 -27.7494
rfingers 7.12502
rthumb 12.3783 -57.363
lclavicle 2.01766e-014 5.1684e-015
lhumerus -12.0906 -18.9666 86.1788
lradius 70.7093
lwrist 11.6381
lhand -23.6009 -13.213
lfingers 7.12502
lthumb 2.8628 16.7475
rfemur -26.5324 -12.4853 3.23474
rtibia 47.0864
rfoot -19.2786 -6.16368
rtoes -8.14944
lfemur -34.8242 12.6113 -16.8748
ltibia 52.1016
lfoot -17.6674 2.63015
ltoes -2.71233
565
root 6.46157 15.8311 -1.2922 -115.604 -84.3872 121.781
lowerback 30.1095 2.0267 -2.28611
upperback 7.33518 0.951177 -2.00171
thorax -8.28379 0.174263 -1.22721
lowerneck -25.5694 10.0095 3.96426
upperneck 29.5312 16.1826 -10.1126
head 16.0979 5.59413 -1.47599
rclavicle -6.95746e-015 1.8487e-014
rhumerus -22.354 -1.14129 -88.8117
rradius 76.8397
rwrist -14.3799
rhand -13.6777 -28.216
rfingers 7.12502
rthumb 12.4398 -57.8258
lclavicle -6.95746e-015 1.8487e-014
lhumerus -11.8618 -19.1431 86.0552
lradius 70.3767
lwrist 11.6911
lhand -23.984 -13.4361
lfingers 7.12502
lthumb 2.49279 16.5291
rfemur -26.205 -12.3335 3.06627
rtibia 46.7264
rfoot -19.1062 -6.14851
rtoes -8.6093
lfemur -34.5869 12.7593 -16.9853
ltibia 52.2348
lfoot -17.8417 2.58823
ltoes -2.36572
566
root 6.46346 15.8316 -1.25435 -117.018 -84.5616 123.199
lowerback 30.2374 1.99433 -2.32843
upperback 7.23297 0.903417 -1.93875
thorax -8.46353 0.155908 -1.11923
lowerneck -25.4969 9.79213 3.85489
upperneck 29.5017 15.8881 -10.0896
head 16.0258 5.46728 -1.52182
rclavicle 6.01324e-015 -8.94531e-016
rhumerus -22.6667 -0.957785 -88.8418
rradius 76.8247
rwrist -14.3258
rhand -13.3845 -28.6566
rfingers 7.12502
rthumb 12.7225 -58.2491
lclavicle 6.01324e-015 -8.94531e-016
lhumerus -11.9652 -19.0744 86.0704
lradius 70.1649
lwrist 11.6095
lhand -24.3506 -13.665
lfingers 7.12502
lthumb 2.13871 16.304
rfemur -26.0297 -12.2329 3.17284
rtibia 46.3072
rfoot -18.8599 -6.21776
rtoes -8.69131
lfemur -34.6512 12.8338 -16.8977
ltibia 52.3457
lfoot -17.8865 2.53611
ltoes -2.10369
567
root 6.45802 15.8394 -1.21202 -117.644 -84.6456 123.857
lowerback 30.2497 1.95904 -2.34531
upperback 7.21146 0.855779 -1.92377
thorax -8.49461 0.134617 -1.0759
lowerneck -25.7951 9.54268 3.53086
upperneck 29.5707 15.6003 -9.90789
head 16.0423 5.32079 -1.4527
rclavicle -8.34896e-015 1.26228e-014
rhumerus -22.8042 -0.866687 -88.82
rradius 76.714
rwrist -14.1866
rhand -13.2358 -28.8055
rfingers 7.12502
rthumb 12.8659 -58.3889
lclavicle -8.34896e-015 1.26228e-014
lhumerus -11.7787 -19.0768 86.0603
lradius 69.8123
lwrist 11.6717
lhand -24.4701 -13.6806
lfingers 7.12502
lthumb 2.02333 16.2896
rfemur -25.8806 -12.3006 3.12607
rtibia 46.0147
rfoot -18.7541 -6.08826
rtoes -8.88693
lfemur -34.7524 12.8298 -16.9762
ltibia 52.4986
lfoot -17.9725 2.56941
ltoes -2.01187
